<?xml version="1.0" encoding="utf-8"?>
<!-- Generator: Adobe Illustrator 23.0.1, SVG Export Plug-In . SVG Version: 6.00 Build 0)  -->
<svg version="1.1" id="Capa_1" xmlns="http://www.w3.org/2000/svg" xmlns:xlink="http://www.w3.org/1999/xlink" x="0px" y="0px"
	 viewBox="0 0 111 122" style="enable-background:new 0 0 111 122;" xml:space="preserve">
<style type="text/css">
	.st0{fill:#060606;}
	.st1{fill:#0A0A0A;}
	.st2{fill:#0F0F0F;}
	.st3{fill:#171717;}
</style>
<path class="st0" d="M55.96,109.17c-14,0-28,0.06-41.99-0.02C5.24,109.1,2.1,105.87,2.08,97C2.03,74.5,2.03,52,2.08,29.51
	c0.02-9.47,3.1-12.62,12.46-12.63c27.66-0.05,55.33-0.05,82.99,0c9.11,0.01,12.35,3.21,12.37,12.23c0.06,22.66,0.06,45.33,0,67.99
	c-0.02,8.84-3.16,12-11.95,12.04c-14,0.07-28,0.02-41.99,0.02C55.96,109.16,55.96,109.17,55.96,109.17z M56.06,104.97
	c13.83,0,27.66,0.02,41.48-0.01c6.32-0.02,7.49-1.22,7.5-7.6c0.02-22.82,0.02-45.65,0-68.47c0-6.44-1.39-7.85-7.89-7.85
	c-27.49-0.02-54.98-0.02-82.47,0c-6.45,0.01-7.72,1.35-7.73,7.98c-0.02,22.82-0.02,45.65,0,68.47c0.01,6.31,1.18,7.47,7.62,7.48
	C28.4,105,42.23,104.98,56.06,104.97z"/>
<path class="st1" d="M56.02,35.3c13.48,0,26.97,0.13,40.44-0.08c4.3-0.07,5.71,1.21,5.65,5.67c-0.25,18.64-0.2,37.28-0.03,55.92
	c0.04,3.86-0.99,5.26-5.04,5.24c-27.46-0.15-54.93-0.14-82.39-0.01c-3.77,0.02-4.82-1.25-4.79-4.91c0.15-18.97,0.2-37.95-0.03-56.92
	c-0.05-4.18,1.55-5,5.23-4.96C28.72,35.39,42.37,35.3,56.02,35.3z M55.99,40.01c-12.66,0-25.32,0.07-37.98-0.05
	c-2.79-0.03-4.07,0.3-4.03,3.67c0.2,16.65,0.16,33.31,0.02,49.97c-0.02,2.92,0.91,3.55,3.66,3.54c25.48-0.1,50.97-0.11,76.45,0.01
	c2.97,0.01,3.52-1.02,3.5-3.71c-0.11-16.66-0.13-33.31,0.02-49.97c0.03-2.96-0.95-3.54-3.66-3.51
	C81.31,40.09,68.65,40.01,55.99,40.01z"/>
<path class="st0" d="M83.14,30.06c-4.99,0-9.98,0.04-14.97-0.03c-1.16-0.02-2.92,0.67-3.11-1.4c-0.21-2.18,1.57-1.74,2.77-1.74
	c10.14-0.04,20.29-0.03,30.44-0.02c1.3,0,3.05-0.21,2.97,1.68c-0.08,1.86-1.85,1.5-3.13,1.5C93.12,30.07,88.13,30.06,83.14,30.06z"
	/>
<path class="st2" d="M47.08,27.38c0.11,4.32-1.83,6.31-4.97,6.53c-3.56,0.25-5.69-2.21-5.69-5.51c0-3.02,1.9-5.4,5.32-5.37
	C45.03,23.06,46.86,24.94,47.08,27.38z"/>
<path class="st1" d="M21.14,28.08c-0.38,3.72-2.28,5.79-5.44,5.82c-3.47,0.03-5.69-2.33-5.51-5.71c0.16-3.04,2.21-5.28,5.6-5.14
	C19.08,23.18,20.6,25.4,21.14,28.08z"/>
<path class="st1" d="M34.1,28.74c-0.3,3.14-2.24,5.09-5.39,5.16c-3.29,0.07-5.41-2.29-5.43-5.31c-0.02-3.24,2.01-5.76,5.67-5.53
	C32.13,23.26,33.98,25.22,34.1,28.74z"/>
<path class="st3" d="M48.23,58.29c0.01-7.05,0.01-7.05,8.35-7.04c7.19,0,7.19,0,7.18,8.71c-0.01,6.81-0.01,6.81-8.59,6.79
	C48.23,66.74,48.23,66.74,48.23,58.29z M58.91,58.86c0.61-2.67-0.92-2.79-3.03-2.9c-2.58-0.14-2.83,1-2.92,3.17
	c-0.1,2.58,1,2.85,3.17,2.92C58.67,62.12,59.36,61.12,58.91,58.86z"/>
<path class="st2" d="M28.95,58.71c0-7.45,0-7.45,7.61-7.44c7.47,0,7.47,0,7.47,8.75c0,6.7,0,6.7-8.03,6.7
	C28.95,66.72,28.95,66.72,28.95,58.71z M39.22,59.06c0.47-2.32-0.39-3.25-2.84-3.09c-1.91,0.13-3.42-0.07-3.36,2.73
	c0.05,2.47,0.57,3.47,3.25,3.37C38.52,61.98,39.74,61.54,39.22,59.06z"/>
<path class="st2" d="M83.04,58.99c0,7.73,0,7.73-7.82,7.73c-7.25,0-7.25,0-7.25-8.47c0-6.99,0-6.99,8.24-6.98
	C83.04,51.27,83.04,51.27,83.04,58.99z M75.44,56.11c-2.32-0.79-2.72,0.58-2.78,2.81c-0.05,2.22,0.42,3.2,2.92,3.14
	c2.41-0.06,3.43-0.53,3.38-3.24C78.92,56.27,77.91,55.7,75.44,56.11z"/>
<path class="st2" d="M55.87,86.05c-7.61,0-7.61,0-7.61-6.96c0-8.12,0-8.12,8.62-8.11c6.87,0,6.87,0,6.86,8.37
	C63.73,86.05,63.73,86.05,55.87,86.05z M55.96,81.82c2.39,0.5,3.16-0.53,3.07-2.89c-0.07-1.98-0.02-3.37-2.76-3.32
	c-2.48,0.04-3.47,0.58-3.34,3.25C53.04,81.09,53.46,82.35,55.96,81.82z"/>
<path class="st0" d="M36.79,70.99c7.22,0,7.21,0,7.21,8.3c0,8.03,0.35,6.72-8.7,6.71c-7.58-0.01-6.23,1.09-6.33-8.91
	C28.92,70.99,28.98,70.99,36.79,70.99z M39.26,78.9c0.35-2.17-0.15-3.47-2.79-3.27c-1.92,0.14-3.55-0.05-3.44,2.77
	c0.09,2.31,0.28,3.7,3.18,3.57C38.49,81.87,39.7,81.38,39.26,78.9z"/>
<path class="st0" d="M83.03,78.53c-0.14,8.79,1.22,7.41-8.27,7.49c-8.02,0.07-6.69,0.41-6.75-8.65c-0.04-6.38-0.01-6.38,8.63-6.37
	C83.03,71,83.03,71,83.03,78.53z M75.71,81.84c2.29,0.4,3.22-0.37,3.27-2.87c0.05-2.63-0.8-3.38-3.37-3.39
	c-2.53-0.01-2.98,1.02-2.97,3.23C72.65,81.09,73.2,82.35,75.71,81.84z"/>
</svg>
